<svg xmlns="http://www.w3.org/2000/svg" viewBox="0 0 184 184"><rect width="184" height="184" fill="#fff"></rect><rect x="64" y="8" width="8" height="8" fill="#1a1340"></rect><rect x="88" y="8" width="8" height="8" fill="#1a1340"></rect><rect x="96" y="8" width="8" height="8" fill="#1a1340"></rect><rect x="112" y="8" width="8" height="8" fill="#1a1340"></rect><rect x="72" y="16" width="8" height="8" fill="#1a1340"></rect><rect x="96" y="16" width="8" height="8" fill="#1a1340"></rect><rect x="112" y="16" width="8" height="8" fill="#1a1340"></rect><rect x="80" y="24" width="8" height="8" fill="#1a1340"></rect><rect x="96" y="24" width="8" height="8" fill="#1a1340"></rect><rect x="112" y="24" width="8" height="8" fill="#1a1340"></rect><rect x="64" y="32" width="8" height="8" fill="#1a1340"></rect><rect x="80" y="32" width="8" height="8" fill="#1a1340"></rect><rect x="96" y="32" width="8" height="8" fill="#1a1340"></rect><rect x="112" y="32" width="8" height="8" fill="#1a1340"></rect><rect x="72" y="40" width="8" height="8" fill="#1a1340"></rect><rect x="96" y="40" width="8" height="8" fill="#1a1340"></rect><rect x="112" y="40" width="8" height="8" fill="#1a1340"></rect><rect x="72" y="48" width="8" height="8" fill="#1a1340"></rect><rect x="88" y="48" width="8" height="8" fill="#1a1340"></rect><rect x="96" y="48" width="8" height="8" fill="#1a1340"></rect><rect x="112" y="48" width="8" height="8" fill="#1a1340"></rect><rect x="64" y="56" width="8" height="8" fill="#1a1340"></rect><rect x="88" y="56" width="8" height="8" fill="#1a1340"></rect><rect x="96" y="56" width="8" height="8" fill="#1a1340"></rect><rect x="8" y="64" width="8" height="8" fill="#1a1340"></rect><rect x="40" y="64" width="8" height="8" fill="#1a1340"></rect><rect x="48" y="64" width="8" height="8" fill="#1a1340"></rect><rect x="80" y="64" width="8" height="8" fill="#1a1340"></rect><rect x="88" y="64" width="8" height="8" fill="#1a1340"></rect><rect x="120" y="64" width="8" height="8" fill="#1a1340"></rect><rect x="128" y="64" width="8" height="8" fill="#1a1340"></rect><rect x="160" y="64" width="8" height="8" fill="#1a1340"></rect><rect x="168" y="64" width="8" height="8" fill="#1a1340"></rect><rect x="8" y="72" width="8" height="8" fill="#1a1340"></rect><rect x="16" y="72" width="8" height="8" fill="#1a1340"></rect><rect x="24" y="72" width="8" height="8" fill="#1a1340"></rect><rect x="64" y="72" width="8" height="8" fill="#1a1340"></rect><rect x="72" y="72" width="8" height="8" fill="#1a1340"></rect><rect x="80" y="72" width="8" height="8" fill="#1a1340"></rect><rect x="88" y="72" width="8" height="8" fill="#1a1340"></rect><rect x="128" y="72" width="8" height="8" fill="#1a1340"></rect><rect x="136" y="72" width="8" height="8" fill="#1a1340"></rect><rect x="144" y="72" width="8" height="8" fill="#1a1340"></rect><rect x="152" y="72" width="8" height="8" fill="#1a1340"></rect><rect x="24" y="80" width="8" height="8" fill="#1a1340"></rect><rect x="32" y="80" width="8" height="8" fill="#1a1340"></rect><rect x="40" y="80" width="8" height="8" fill="#1a1340"></rect><rect x="48" y="80" width="8" height="8" fill="#1a1340"></rect><rect x="56" y="80" width="8" height="8" fill="#1a1340"></rect><rect x="64" y="80" width="8" height="8" fill="#1a1340"></rect><rect x="72" y="80" width="8" height="8" fill="#1a1340"></rect><rect x="152" y="80" width="8" height="8" fill="#1a1340"></rect><rect x="160" y="80" width="8" height="8" fill="#1a1340"></rect><rect x="168" y="80" width="8" height="8" fill="#1a1340"></rect><rect x="24" y="96" width="8" height="8" fill="#1a1340"></rect><rect x="32" y="96" width="8" height="8" fill="#1a1340"></rect><rect x="40" y="96" width="8" height="8" fill="#1a1340"></rect><rect x="48" y="96" width="8" height="8" fill="#1a1340"></rect><rect x="56" y="96" width="8" height="8" fill="#1a1340"></rect><rect x="64" y="96" width="8" height="8" fill="#1a1340"></rect><rect x="128" y="96" width="8" height="8" fill="#1a1340"></rect><rect x="136" y="96" width="8" height="8" fill="#1a1340"></rect><rect x="144" y="96" width="8" height="8" fill="#1a1340"></rect><rect x="152" y="96" width="8" height="8" fill="#1a1340"></rect><rect x="160" y="96" width="8" height="8" fill="#1a1340"></rect><rect x="8" y="104" width="8" height="8" fill="#1a1340"></rect><rect x="16" y="104" width="8" height="8" fill="#1a1340"></rect><rect x="24" y="104" width="8" height="8" fill="#1a1340"></rect><rect x="64" y="104" width="8" height="8" fill="#1a1340"></rect><rect x="72" y="104" width="8" height="8" fill="#1a1340"></rect><rect x="80" y="104" width="8" height="8" fill="#1a1340"></rect><rect x="120" y="104" width="8" height="8" fill="#1a1340"></rect><rect x="128" y="104" width="8" height="8" fill="#1a1340"></rect><rect x="136" y="104" width="8" height="8" fill="#1a1340"></rect><rect x="168" y="104" width="8" height="8" fill="#1a1340"></rect><rect x="8" y="112" width="8" height="8" fill="#1a1340"></rect><rect x="16" y="112" width="8" height="8" fill="#1a1340"></rect><rect x="40" y="112" width="8" height="8" fill="#1a1340"></rect><rect x="48" y="112" width="8" height="8" fill="#1a1340"></rect><rect x="80" y="112" width="8" height="8" fill="#1a1340"></rect><rect x="88" y="112" width="8" height="8" fill="#1a1340"></rect><rect x="112" y="112" width="8" height="8" fill="#1a1340"></rect><rect x="120" y="112" width="8" height="8" fill="#1a1340"></rect><rect x="152" y="112" width="8" height="8" fill="#1a1340"></rect><rect x="160" y="112" width="8" height="8" fill="#1a1340"></rect><rect x="64" y="120" width="8" height="8" fill="#1a1340"></rect><rect x="88" y="120" width="8" height="8" fill="#1a1340"></rect><rect x="112" y="120" width="8" height="8" fill="#1a1340"></rect><rect x="120" y="120" width="8" height="8" fill="#1a1340"></rect><rect x="136" y="120" width="8" height="8" fill="#1a1340"></rect><rect x="144" y="120" width="8" height="8" fill="#1a1340"></rect><rect x="168" y="120" width="8" height="8" fill="#1a1340"></rect><rect x="64" y="128" width="8" height="8" fill="#1a1340"></rect><rect x="72" y="128" width="8" height="8" fill="#1a1340"></rect><rect x="88" y="128" width="8" height="8" fill="#1a1340"></rect><rect x="112" y="128" width="8" height="8" fill="#1a1340"></rect><rect x="136" y="128" width="8" height="8" fill="#1a1340"></rect><rect x="152" y="128" width="8" height="8" fill="#1a1340"></rect><rect x="160" y="128" width="8" height="8" fill="#1a1340"></rect><rect x="72" y="136" width="8" height="8" fill="#1a1340"></rect><rect x="88" y="136" width="8" height="8" fill="#1a1340"></rect><rect x="96" y="136" width="8" height="8" fill="#1a1340"></rect><rect x="112" y="136" width="8" height="8" fill="#1a1340"></rect><rect x="128" y="136" width="8" height="8" fill="#1a1340"></rect><rect x="144" y="136" width="8" height="8" fill="#1a1340"></rect><rect x="168" y="136" width="8" height="8" fill="#1a1340"></rect><rect x="64" y="144" width="8" height="8" fill="#1a1340"></rect><rect x="80" y="144" width="8" height="8" fill="#1a1340"></rect><rect x="96" y="144" width="8" height="8" fill="#1a1340"></rect><rect x="112" y="144" width="8" height="8" fill="#1a1340"></rect><rect x="128" y="144" width="8" height="8" fill="#1a1340"></rect><rect x="144" y="144" width="8" height="8" fill="#1a1340"></rect><rect x="160" y="144" width="8" height="8" fill="#1a1340"></rect><rect x="64" y="152" width="8" height="8" fill="#1a1340"></rect><rect x="80" y="152" width="8" height="8" fill="#1a1340"></rect><rect x="96" y="152" width="8" height="8" fill="#1a1340"></rect><rect x="120" y="152" width="8" height="8" fill="#1a1340"></rect><rect x="136" y="152" width="8" height="8" fill="#1a1340"></rect><rect x="152" y="152" width="8" height="8" fill="#1a1340"></rect><rect x="72" y="160" width="8" height="8" fill="#1a1340"></rect><rect x="96" y="160" width="8" height="8" fill="#1a1340"></rect><rect x="120" y="160" width="8" height="8" fill="#1a1340"></rect><rect x="144" y="160" width="8" height="8" fill="#1a1340"></rect><rect x="160" y="160" width="8" height="8" fill="#1a1340"></rect><rect x="168" y="160" width="8" height="8" fill="#1a1340"></rect><rect x="64" y="168" width="8" height="8" fill="#1a1340"></rect><rect x="72" y="168" width="8" height="8" fill="#1a1340"></rect><rect x="96" y="168" width="8" height="8" fill="#1a1340"></rect><rect x="120" y="168" width="8" height="8" fill="#1a1340"></rect><rect x="128" y="168" width="8" height="8" fill="#1a1340"></rect><rect x="152" y="168" width="8" height="8" fill="#1a1340"></rect><rect x="8" y="8" width="56" height="56" fill="#1a1340"></rect><rect x="16" y="16" width="40" height="40" fill="#fff"></rect><rect x="24" y="24" width="24" height="24" fill="#1a1340"></rect><rect x="120" y="8" width="56" height="56" fill="#1a1340"></rect><rect x="128" y="16" width="40" height="40" fill="#fff"></rect><rect x="136" y="24" width="24" height="24" fill="#1a1340"></rect><rect x="8" y="120" width="56" height="56" fill="#1a1340"></rect><rect x="16" y="128" width="40" height="40" fill="#fff"></rect><rect x="24" y="136" width="24" height="24" fill="#1a1340"></rect></svg>