<svg xmlns="http://www.w3.org/2000/svg" viewBox="0 0 960 260" width="960" height="260">
<rect width="100%" height="100%" fill="white"></rect>
<rect x="472.8" y="30" width="35.2" height="200.0" rx="9" fill="#7c5cdb" opacity="0.16" stroke="#7c5cdb" stroke-opacity="0.4"></rect>
<line x1="14" y1="212" x2="946" y2="212" stroke="#e2e2e2" stroke-width="1"></line>
<path d="M4.5 212 Q 14.0 101.0 23.5 212" fill="none" stroke="#1aa34a" stroke-width="2"></path><path d="M4.5 212 Q 14.0 195.0 23.5 212" fill="none" stroke="#2a6fdb" stroke-width="1.4" opacity="0.5"></path><path d="M4.5 212 Q 14.0 196.0 23.5 212" fill="none" stroke="#222222" stroke-width="1.4" opacity="0.5"></path><path d="M4.5 212 Q 14.0 197.0 23.5 212" fill="none" stroke="#e23b2e" stroke-width="1.4" opacity="0.5"></path><path d="M25.2 212 Q 34.7 105.0 44.2 212" fill="none" stroke="#222222" stroke-width="2"></path><path d="M25.2 212 Q 34.7 198.0 44.2 212" fill="none" stroke="#1aa34a" stroke-width="1.4" opacity="0.5"></path><path d="M25.2 212 Q 34.7 199.0 44.2 212" fill="none" stroke="#2a6fdb" stroke-width="1.4" opacity="0.5"></path><path d="M25.2 212 Q 34.7 200.0 44.2 212" fill="none" stroke="#e23b2e" stroke-width="1.4" opacity="0.5"></path><path d="M45.9 212 Q 55.4 108.0 64.9 212" fill="none" stroke="#e23b2e" stroke-width="2"></path><path d="M45.9 212 Q 55.4 202.0 64.9 212" fill="none" stroke="#1aa34a" stroke-width="1.4" opacity="0.5"></path><path d="M45.9 212 Q 55.4 203.0 64.9 212" fill="none" stroke="#2a6fdb" stroke-width="1.4" opacity="0.5"></path><path d="M45.9 212 Q 55.4 204.0 64.9 212" fill="none" stroke="#222222" stroke-width="1.4" opacity="0.5"></path><path d="M66.6 212 Q 76.1 111.0 85.7 212" fill="none" stroke="#2a6fdb" stroke-width="2"></path><path d="M66.6 212 Q 76.1 204.0 85.7 212" fill="none" stroke="#1aa34a" stroke-width="1.4" opacity="0.5"></path><path d="M66.6 212 Q 76.1 187.0 85.7 212" fill="none" stroke="#222222" stroke-width="1.4" opacity="0.5"></path><path d="M66.6 212 Q 76.1 188.0 85.7 212" fill="none" stroke="#e23b2e" stroke-width="1.4" opacity="0.5"></path><path d="M87.3 212 Q 96.8 117.0 106.4 212" fill="none" stroke="#e23b2e" stroke-width="2"></path><path d="M87.3 212 Q 96.8 192.0 106.4 212" fill="none" stroke="#1aa34a" stroke-width="1.4" opacity="0.5"></path><path d="M87.3 212 Q 96.8 193.0 106.4 212" fill="none" stroke="#2a6fdb" stroke-width="1.4" opacity="0.5"></path><path d="M87.3 212 Q 96.8 194.0 106.4 212" fill="none" stroke="#222222" stroke-width="1.4" opacity="0.5"></path><path d="M108.0 212 Q 117.6 113.0 127.1 212" fill="none" stroke="#222222" stroke-width="2"></path><path d="M108.0 212 Q 117.6 188.0 127.1 212" fill="none" stroke="#1aa34a" stroke-width="1.4" opacity="0.5"></path><path d="M108.0 212 Q 117.6 189.0 127.1 212" fill="none" stroke="#2a6fdb" stroke-width="1.4" opacity="0.5"></path><path d="M108.0 212 Q 117.6 190.0 127.1 212" fill="none" stroke="#e23b2e" stroke-width="1.4" opacity="0.5"></path><path d="M128.7 212 Q 138.3 140.0 147.8 212" fill="none" stroke="#222222" stroke-width="2"></path><path d="M128.7 212 Q 138.3 197.0 147.8 212" fill="none" stroke="#1aa34a" stroke-width="1.4" opacity="0.5"></path><path d="M128.7 212 Q 138.3 198.0 147.8 212" fill="none" stroke="#2a6fdb" stroke-width="1.4" opacity="0.5"></path><path d="M128.7 212 Q 138.3 199.0 147.8 212" fill="none" stroke="#e23b2e" stroke-width="1.4" opacity="0.5"></path><path d="M149.5 212 Q 159.0 112.0 168.5 212" fill="none" stroke="#222222" stroke-width="2"></path><path d="M149.5 212 Q 159.0 188.0 168.5 212" fill="none" stroke="#1aa34a" stroke-width="1.4" opacity="0.5"></path><path d="M149.5 212 Q 159.0 189.0 168.5 212" fill="none" stroke="#2a6fdb" stroke-width="1.4" opacity="0.5"></path><path d="M149.5 212 Q 159.0 190.0 168.5 212" fill="none" stroke="#e23b2e" stroke-width="1.4" opacity="0.5"></path><path d="M170.2 212 Q 179.7 125.0 189.2 212" fill="none" stroke="#e23b2e" stroke-width="2"></path><path d="M170.2 212 Q 179.7 200.0 189.2 212" fill="none" stroke="#1aa34a" stroke-width="1.4" opacity="0.5"></path><path d="M170.2 212 Q 179.7 201.0 189.2 212" fill="none" stroke="#2a6fdb" stroke-width="1.4" opacity="0.5"></path><path d="M170.2 212 Q 179.7 202.0 189.2 212" fill="none" stroke="#222222" stroke-width="1.4" opacity="0.5"></path><path d="M190.9 212 Q 200.4 144.0 209.9 212" fill="none" stroke="#1aa34a" stroke-width="2"></path><path d="M190.9 212 Q 200.4 202.0 209.9 212" fill="none" stroke="#2a6fdb" stroke-width="1.4" opacity="0.5"></path><path d="M190.9 212 Q 200.4 203.0 209.9 212" fill="none" stroke="#222222" stroke-width="1.4" opacity="0.5"></path><path d="M190.9 212 Q 200.4 204.0 209.9 212" fill="none" stroke="#e23b2e" stroke-width="1.4" opacity="0.5"></path><path d="M211.6 212 Q 221.1 93.0 230.6 212" fill="none" stroke="#222222" stroke-width="2"></path><path d="M211.6 212 Q 221.1 187.0 230.6 212" fill="none" stroke="#1aa34a" stroke-width="1.4" opacity="0.5"></path><path d="M211.6 212 Q 221.1 188.0 230.6 212" fill="none" stroke="#2a6fdb" stroke-width="1.4" opacity="0.5"></path><path d="M211.6 212 Q 221.1 189.0 230.6 212" fill="none" stroke="#e23b2e" stroke-width="1.4" opacity="0.5"></path><path d="M232.3 212 Q 241.8 98.0 251.3 212" fill="none" stroke="#1aa34a" stroke-width="2"></path><path d="M232.3 212 Q 241.8 192.0 251.3 212" fill="none" stroke="#2a6fdb" stroke-width="1.4" opacity="0.5"></path><path d="M232.3 212 Q 241.8 193.0 251.3 212" fill="none" stroke="#222222" stroke-width="1.4" opacity="0.5"></path><path d="M232.3 212 Q 241.8 194.0 251.3 212" fill="none" stroke="#e23b2e" stroke-width="1.4" opacity="0.5"></path><path d="M253.0 212 Q 262.5 133.0 272.1 212" fill="none" stroke="#e23b2e" stroke-width="2"></path><path d="M253.0 212 Q 262.5 190.0 272.1 212" fill="none" stroke="#1aa34a" stroke-width="1.4" opacity="0.5"></path><path d="M253.0 212 Q 262.5 191.0 272.1 212" fill="none" stroke="#2a6fdb" stroke-width="1.4" opacity="0.5"></path><path d="M253.0 212 Q 262.5 192.0 272.1 212" fill="none" stroke="#222222" stroke-width="1.4" opacity="0.5"></path><path d="M273.7 212 Q 283.2 126.0 292.8 212" fill="none" stroke="#2a6fdb" stroke-width="2"></path><path d="M273.7 212 Q 283.2 202.0 292.8 212" fill="none" stroke="#1aa34a" stroke-width="1.4" opacity="0.5"></path><path d="M273.7 212 Q 283.2 203.0 292.8 212" fill="none" stroke="#222222" stroke-width="1.4" opacity="0.5"></path><path d="M273.7 212 Q 283.2 204.0 292.8 212" fill="none" stroke="#e23b2e" stroke-width="1.4" opacity="0.5"></path><path d="M294.4 212 Q 304.0 132.0 313.5 212" fill="none" stroke="#e23b2e" stroke-width="2"></path><path d="M294.4 212 Q 304.0 190.0 313.5 212" fill="none" stroke="#1aa34a" stroke-width="1.4" opacity="0.5"></path><path d="M294.4 212 Q 304.0 191.0 313.5 212" fill="none" stroke="#2a6fdb" stroke-width="1.4" opacity="0.5"></path><path d="M294.4 212 Q 304.0 192.0 313.5 212" fill="none" stroke="#222222" stroke-width="1.4" opacity="0.5"></path><path d="M315.1 212 Q 324.7 128.0 334.2 212" fill="none" stroke="#222222" stroke-width="2"></path><path d="M315.1 212 Q 324.7 204.0 334.2 212" fill="none" stroke="#1aa34a" stroke-width="1.4" opacity="0.5"></path><path d="M315.1 212 Q 324.7 187.0 334.2 212" fill="none" stroke="#2a6fdb" stroke-width="1.4" opacity="0.5"></path><path d="M315.1 212 Q 324.7 188.0 334.2 212" fill="none" stroke="#e23b2e" stroke-width="1.4" opacity="0.5"></path><path d="M335.9 212 Q 345.4 110.0 354.9 212" fill="none" stroke="#222222" stroke-width="2"></path><path d="M335.9 212 Q 345.4 203.0 354.9 212" fill="none" stroke="#1aa34a" stroke-width="1.4" opacity="0.5"></path><path d="M335.9 212 Q 345.4 204.0 354.9 212" fill="none" stroke="#2a6fdb" stroke-width="1.4" opacity="0.5"></path><path d="M335.9 212 Q 345.4 187.0 354.9 212" fill="none" stroke="#e23b2e" stroke-width="1.4" opacity="0.5"></path><path d="M356.6 212 Q 366.1 137.0 375.6 212" fill="none" stroke="#222222" stroke-width="2"></path><path d="M356.6 212 Q 366.1 194.0 375.6 212" fill="none" stroke="#1aa34a" stroke-width="1.4" opacity="0.5"></path><path d="M356.6 212 Q 366.1 195.0 375.6 212" fill="none" stroke="#2a6fdb" stroke-width="1.4" opacity="0.5"></path><path d="M356.6 212 Q 366.1 196.0 375.6 212" fill="none" stroke="#e23b2e" stroke-width="1.4" opacity="0.5"></path><path d="M377.3 212 Q 386.8 109.0 396.3 212" fill="none" stroke="#222222" stroke-width="2"></path><path d="M377.3 212 Q 386.8 203.0 396.3 212" fill="none" stroke="#1aa34a" stroke-width="1.4" opacity="0.5"></path><path d="M377.3 212 Q 386.8 204.0 396.3 212" fill="none" stroke="#2a6fdb" stroke-width="1.4" opacity="0.5"></path><path d="M377.3 212 Q 386.8 187.0 396.3 212" fill="none" stroke="#e23b2e" stroke-width="1.4" opacity="0.5"></path><path d="M398.0 212 Q 407.5 114.0 417.0 212" fill="none" stroke="#1aa34a" stroke-width="2"></path><path d="M398.0 212 Q 407.5 190.0 417.0 212" fill="none" stroke="#2a6fdb" stroke-width="1.4" opacity="0.5"></path><path d="M398.0 212 Q 407.5 191.0 417.0 212" fill="none" stroke="#222222" stroke-width="1.4" opacity="0.5"></path><path d="M398.0 212 Q 407.5 192.0 417.0 212" fill="none" stroke="#e23b2e" stroke-width="1.4" opacity="0.5"></path><path d="M418.7 212 Q 428.2 141.0 437.7 212" fill="none" stroke="#1aa34a" stroke-width="2"></path><path d="M418.7 212 Q 428.2 199.0 437.7 212" fill="none" stroke="#2a6fdb" stroke-width="1.4" opacity="0.5"></path><path d="M418.7 212 Q 428.2 200.0 437.7 212" fill="none" stroke="#222222" stroke-width="1.4" opacity="0.5"></path><path d="M418.7 212 Q 428.2 201.0 437.7 212" fill="none" stroke="#e23b2e" stroke-width="1.4" opacity="0.5"></path><path d="M439.4 212 Q 448.9 145.0 458.5 212" fill="none" stroke="#222222" stroke-width="2"></path><path d="M439.4 212 Q 448.9 202.0 458.5 212" fill="none" stroke="#1aa34a" stroke-width="1.4" opacity="0.5"></path><path d="M439.4 212 Q 448.9 203.0 458.5 212" fill="none" stroke="#2a6fdb" stroke-width="1.4" opacity="0.5"></path><path d="M439.4 212 Q 448.9 204.0 458.5 212" fill="none" stroke="#e23b2e" stroke-width="1.4" opacity="0.5"></path><path d="M460.1 212 Q 469.6 95.0 479.2 212" fill="none" stroke="#1aa34a" stroke-width="2"></path><path d="M460.1 212 Q 469.6 189.0 479.2 212" fill="none" stroke="#2a6fdb" stroke-width="1.4" opacity="0.5"></path><path d="M460.1 212 Q 469.6 190.0 479.2 212" fill="none" stroke="#222222" stroke-width="1.4" opacity="0.5"></path><path d="M460.1 212 Q 469.6 191.0 479.2 212" fill="none" stroke="#e23b2e" stroke-width="1.4" opacity="0.5"></path><path d="M480.8 212 Q 490.4 56.0 499.9 212" fill="none" stroke="#222222" stroke-width="2"></path><path d="M480.8 212 Q 490.4 202.0 499.9 212" fill="none" stroke="#1aa34a" stroke-width="1.4" opacity="0.5"></path><path d="M480.8 212 Q 490.4 203.0 499.9 212" fill="none" stroke="#2a6fdb" stroke-width="1.4" opacity="0.5"></path><path d="M480.8 212 Q 490.4 204.0 499.9 212" fill="none" stroke="#e23b2e" stroke-width="1.4" opacity="0.5"></path><path d="M501.5 212 Q 511.1 126.0 520.6 212" fill="none" stroke="#222222" stroke-width="2"></path><path d="M501.5 212 Q 511.1 201.0 520.6 212" fill="none" stroke="#1aa34a" stroke-width="1.4" opacity="0.5"></path><path d="M501.5 212 Q 511.1 202.0 520.6 212" fill="none" stroke="#2a6fdb" stroke-width="1.4" opacity="0.5"></path><path d="M501.5 212 Q 511.1 203.0 520.6 212" fill="none" stroke="#e23b2e" stroke-width="1.4" opacity="0.5"></path><path d="M522.3 212 Q 531.8 129.0 541.3 212" fill="none" stroke="#e23b2e" stroke-width="2"></path><path d="M522.3 212 Q 531.8 187.0 541.3 212" fill="none" stroke="#1aa34a" stroke-width="1.4" opacity="0.5"></path><path d="M522.3 212 Q 531.8 188.0 541.3 212" fill="none" stroke="#2a6fdb" stroke-width="1.4" opacity="0.5"></path><path d="M522.3 212 Q 531.8 189.0 541.3 212" fill="none" stroke="#222222" stroke-width="1.4" opacity="0.5"></path><path d="M543.0 212 Q 552.5 125.0 562.0 212" fill="none" stroke="#222222" stroke-width="2"></path><path d="M543.0 212 Q 552.5 201.0 562.0 212" fill="none" stroke="#1aa34a" stroke-width="1.4" opacity="0.5"></path><path d="M543.0 212 Q 552.5 202.0 562.0 212" fill="none" stroke="#2a6fdb" stroke-width="1.4" opacity="0.5"></path><path d="M543.0 212 Q 552.5 203.0 562.0 212" fill="none" stroke="#e23b2e" stroke-width="1.4" opacity="0.5"></path><path d="M563.7 212 Q 573.2 130.0 582.7 212" fill="none" stroke="#1aa34a" stroke-width="2"></path><path d="M563.7 212 Q 573.2 188.0 582.7 212" fill="none" stroke="#2a6fdb" stroke-width="1.4" opacity="0.5"></path><path d="M563.7 212 Q 573.2 189.0 582.7 212" fill="none" stroke="#222222" stroke-width="1.4" opacity="0.5"></path><path d="M563.7 212 Q 573.2 190.0 582.7 212" fill="none" stroke="#e23b2e" stroke-width="1.4" opacity="0.5"></path><path d="M584.4 212 Q 593.9 112.0 603.4 212" fill="none" stroke="#1aa34a" stroke-width="2"></path><path d="M584.4 212 Q 593.9 187.0 603.4 212" fill="none" stroke="#2a6fdb" stroke-width="1.4" opacity="0.5"></path><path d="M584.4 212 Q 593.9 188.0 603.4 212" fill="none" stroke="#222222" stroke-width="1.4" opacity="0.5"></path><path d="M584.4 212 Q 593.9 189.0 603.4 212" fill="none" stroke="#e23b2e" stroke-width="1.4" opacity="0.5"></path><path d="M605.1 212 Q 614.6 137.0 624.1 212" fill="none" stroke="#e23b2e" stroke-width="2"></path><path d="M605.1 212 Q 614.6 195.0 624.1 212" fill="none" stroke="#1aa34a" stroke-width="1.4" opacity="0.5"></path><path d="M605.1 212 Q 614.6 196.0 624.1 212" fill="none" stroke="#2a6fdb" stroke-width="1.4" opacity="0.5"></path><path d="M605.1 212 Q 614.6 197.0 624.1 212" fill="none" stroke="#222222" stroke-width="1.4" opacity="0.5"></path><path d="M625.8 212 Q 635.3 133.0 644.9 212" fill="none" stroke="#222222" stroke-width="2"></path><path d="M625.8 212 Q 635.3 191.0 644.9 212" fill="none" stroke="#1aa34a" stroke-width="1.4" opacity="0.5"></path><path d="M625.8 212 Q 635.3 192.0 644.9 212" fill="none" stroke="#2a6fdb" stroke-width="1.4" opacity="0.5"></path><path d="M625.8 212 Q 635.3 193.0 644.9 212" fill="none" stroke="#e23b2e" stroke-width="1.4" opacity="0.5"></path><path d="M646.5 212 Q 656.0 138.0 665.6 212" fill="none" stroke="#1aa34a" stroke-width="2"></path><path d="M646.5 212 Q 656.0 196.0 665.6 212" fill="none" stroke="#2a6fdb" stroke-width="1.4" opacity="0.5"></path><path d="M646.5 212 Q 656.0 197.0 665.6 212" fill="none" stroke="#222222" stroke-width="1.4" opacity="0.5"></path><path d="M646.5 212 Q 656.0 198.0 665.6 212" fill="none" stroke="#e23b2e" stroke-width="1.4" opacity="0.5"></path><path d="M667.2 212 Q 676.8 139.0 686.3 212" fill="none" stroke="#2a6fdb" stroke-width="2"></path><path d="M667.2 212 Q 676.8 197.0 686.3 212" fill="none" stroke="#1aa34a" stroke-width="1.4" opacity="0.5"></path><path d="M667.2 212 Q 676.8 198.0 686.3 212" fill="none" stroke="#222222" stroke-width="1.4" opacity="0.5"></path><path d="M667.2 212 Q 676.8 199.0 686.3 212" fill="none" stroke="#e23b2e" stroke-width="1.4" opacity="0.5"></path><path d="M687.9 212 Q 697.5 145.0 707.0 212" fill="none" stroke="#e23b2e" stroke-width="2"></path><path d="M687.9 212 Q 697.5 203.0 707.0 212" fill="none" stroke="#1aa34a" stroke-width="1.4" opacity="0.5"></path><path d="M687.9 212 Q 697.5 204.0 707.0 212" fill="none" stroke="#2a6fdb" stroke-width="1.4" opacity="0.5"></path><path d="M687.9 212 Q 697.5 187.0 707.0 212" fill="none" stroke="#222222" stroke-width="1.4" opacity="0.5"></path><path d="M708.7 212 Q 718.2 141.0 727.7 212" fill="none" stroke="#222222" stroke-width="2"></path><path d="M708.7 212 Q 718.2 199.0 727.7 212" fill="none" stroke="#1aa34a" stroke-width="1.4" opacity="0.5"></path><path d="M708.7 212 Q 718.2 200.0 727.7 212" fill="none" stroke="#2a6fdb" stroke-width="1.4" opacity="0.5"></path><path d="M708.7 212 Q 718.2 201.0 727.7 212" fill="none" stroke="#e23b2e" stroke-width="1.4" opacity="0.5"></path><path d="M729.4 212 Q 738.9 123.0 748.4 212" fill="none" stroke="#222222" stroke-width="2"></path><path d="M729.4 212 Q 738.9 198.0 748.4 212" fill="none" stroke="#1aa34a" stroke-width="1.4" opacity="0.5"></path><path d="M729.4 212 Q 738.9 199.0 748.4 212" fill="none" stroke="#2a6fdb" stroke-width="1.4" opacity="0.5"></path><path d="M729.4 212 Q 738.9 200.0 748.4 212" fill="none" stroke="#e23b2e" stroke-width="1.4" opacity="0.5"></path><path d="M750.1 212 Q 759.6 95.0 769.1 212" fill="none" stroke="#222222" stroke-width="2"></path><path d="M750.1 212 Q 759.6 189.0 769.1 212" fill="none" stroke="#1aa34a" stroke-width="1.4" opacity="0.5"></path><path d="M750.1 212 Q 759.6 190.0 769.1 212" fill="none" stroke="#2a6fdb" stroke-width="1.4" opacity="0.5"></path><path d="M750.1 212 Q 759.6 191.0 769.1 212" fill="none" stroke="#e23b2e" stroke-width="1.4" opacity="0.5"></path><path d="M770.8 212 Q 780.3 129.0 789.8 212" fill="none" stroke="#2a6fdb" stroke-width="2"></path><path d="M770.8 212 Q 780.3 204.0 789.8 212" fill="none" stroke="#1aa34a" stroke-width="1.4" opacity="0.5"></path><path d="M770.8 212 Q 780.3 187.0 789.8 212" fill="none" stroke="#222222" stroke-width="1.4" opacity="0.5"></path><path d="M770.8 212 Q 780.3 188.0 789.8 212" fill="none" stroke="#e23b2e" stroke-width="1.4" opacity="0.5"></path><path d="M791.5 212 Q 801.0 127.0 810.5 212" fill="none" stroke="#1aa34a" stroke-width="2"></path><path d="M791.5 212 Q 801.0 203.0 810.5 212" fill="none" stroke="#2a6fdb" stroke-width="1.4" opacity="0.5"></path><path d="M791.5 212 Q 801.0 204.0 810.5 212" fill="none" stroke="#222222" stroke-width="1.4" opacity="0.5"></path><path d="M791.5 212 Q 801.0 187.0 810.5 212" fill="none" stroke="#e23b2e" stroke-width="1.4" opacity="0.5"></path><path d="M812.2 212 Q 821.7 128.0 831.3 212" fill="none" stroke="#2a6fdb" stroke-width="2"></path><path d="M812.2 212 Q 821.7 204.0 831.3 212" fill="none" stroke="#1aa34a" stroke-width="1.4" opacity="0.5"></path><path d="M812.2 212 Q 821.7 187.0 831.3 212" fill="none" stroke="#222222" stroke-width="1.4" opacity="0.5"></path><path d="M812.2 212 Q 821.7 188.0 831.3 212" fill="none" stroke="#e23b2e" stroke-width="1.4" opacity="0.5"></path><path d="M832.9 212 Q 842.4 103.0 852.0 212" fill="none" stroke="#222222" stroke-width="2"></path><path d="M832.9 212 Q 842.4 197.0 852.0 212" fill="none" stroke="#1aa34a" stroke-width="1.4" opacity="0.5"></path><path d="M832.9 212 Q 842.4 198.0 852.0 212" fill="none" stroke="#2a6fdb" stroke-width="1.4" opacity="0.5"></path><path d="M832.9 212 Q 842.4 199.0 852.0 212" fill="none" stroke="#e23b2e" stroke-width="1.4" opacity="0.5"></path><path d="M853.6 212 Q 863.2 130.0 872.7 212" fill="none" stroke="#222222" stroke-width="2"></path><path d="M853.6 212 Q 863.2 188.0 872.7 212" fill="none" stroke="#1aa34a" stroke-width="1.4" opacity="0.5"></path><path d="M853.6 212 Q 863.2 189.0 872.7 212" fill="none" stroke="#2a6fdb" stroke-width="1.4" opacity="0.5"></path><path d="M853.6 212 Q 863.2 190.0 872.7 212" fill="none" stroke="#e23b2e" stroke-width="1.4" opacity="0.5"></path><path d="M874.3 212 Q 883.9 143.0 893.4 212" fill="none" stroke="#e23b2e" stroke-width="2"></path><path d="M874.3 212 Q 883.9 200.0 893.4 212" fill="none" stroke="#1aa34a" stroke-width="1.4" opacity="0.5"></path><path d="M874.3 212 Q 883.9 201.0 893.4 212" fill="none" stroke="#2a6fdb" stroke-width="1.4" opacity="0.5"></path><path d="M874.3 212 Q 883.9 202.0 893.4 212" fill="none" stroke="#222222" stroke-width="1.4" opacity="0.5"></path><path d="M895.1 212 Q 904.6 136.0 914.1 212" fill="none" stroke="#2a6fdb" stroke-width="2"></path><path d="M895.1 212 Q 904.6 194.0 914.1 212" fill="none" stroke="#1aa34a" stroke-width="1.4" opacity="0.5"></path><path d="M895.1 212 Q 904.6 195.0 914.1 212" fill="none" stroke="#222222" stroke-width="1.4" opacity="0.5"></path><path d="M895.1 212 Q 904.6 196.0 914.1 212" fill="none" stroke="#e23b2e" stroke-width="1.4" opacity="0.5"></path><path d="M915.8 212 Q 925.3 144.0 934.8 212" fill="none" stroke="#1aa34a" stroke-width="2"></path><path d="M915.8 212 Q 925.3 201.0 934.8 212" fill="none" stroke="#2a6fdb" stroke-width="1.4" opacity="0.5"></path><path d="M915.8 212 Q 925.3 202.0 934.8 212" fill="none" stroke="#222222" stroke-width="1.4" opacity="0.5"></path><path d="M915.8 212 Q 925.3 203.0 934.8 212" fill="none" stroke="#e23b2e" stroke-width="1.4" opacity="0.5"></path><path d="M936.5 212 Q 946.0 116.0 955.5 212" fill="none" stroke="#1aa34a" stroke-width="2"></path><path d="M936.5 212 Q 946.0 192.0 955.5 212" fill="none" stroke="#2a6fdb" stroke-width="1.4" opacity="0.5"></path><path d="M936.5 212 Q 946.0 193.0 955.5 212" fill="none" stroke="#222222" stroke-width="1.4" opacity="0.5"></path><path d="M936.5 212 Q 946.0 194.0 955.5 212" fill="none" stroke="#e23b2e" stroke-width="1.4" opacity="0.5"></path>
<text x="14.0" y="24" font-family="monospace" font-size="17" font-weight="700" fill="#1aa34a" text-anchor="middle">A</text><text x="34.7" y="24" font-family="monospace" font-size="17" font-weight="700" fill="#222222" text-anchor="middle">G</text><text x="55.4" y="24" font-family="monospace" font-size="17" font-weight="700" fill="#e23b2e" text-anchor="middle">T</text><text x="76.1" y="24" font-family="monospace" font-size="17" font-weight="700" fill="#2a6fdb" text-anchor="middle">C</text><text x="96.8" y="24" font-family="monospace" font-size="17" font-weight="700" fill="#e23b2e" text-anchor="middle">T</text><text x="117.6" y="24" font-family="monospace" font-size="17" font-weight="700" fill="#222222" text-anchor="middle">G</text><text x="138.3" y="24" font-family="monospace" font-size="17" font-weight="700" fill="#222222" text-anchor="middle">G</text><text x="159.0" y="24" font-family="monospace" font-size="17" font-weight="700" fill="#222222" text-anchor="middle">G</text><text x="179.7" y="24" font-family="monospace" font-size="17" font-weight="700" fill="#e23b2e" text-anchor="middle">T</text><text x="200.4" y="24" font-family="monospace" font-size="17" font-weight="700" fill="#1aa34a" text-anchor="middle">A</text><text x="221.1" y="24" font-family="monospace" font-size="17" font-weight="700" fill="#222222" text-anchor="middle">G</text><text x="241.8" y="24" font-family="monospace" font-size="17" font-weight="700" fill="#1aa34a" text-anchor="middle">A</text><text x="262.5" y="24" font-family="monospace" font-size="17" font-weight="700" fill="#e23b2e" text-anchor="middle">T</text><text x="283.2" y="24" font-family="monospace" font-size="17" font-weight="700" fill="#2a6fdb" text-anchor="middle">C</text><text x="304.0" y="24" font-family="monospace" font-size="17" font-weight="700" fill="#e23b2e" text-anchor="middle">T</text><text x="324.7" y="24" font-family="monospace" font-size="17" font-weight="700" fill="#222222" text-anchor="middle">G</text><text x="345.4" y="24" font-family="monospace" font-size="17" font-weight="700" fill="#222222" text-anchor="middle">G</text><text x="366.1" y="24" font-family="monospace" font-size="17" font-weight="700" fill="#222222" text-anchor="middle">G</text><text x="386.8" y="24" font-family="monospace" font-size="17" font-weight="700" fill="#222222" text-anchor="middle">G</text><text x="407.5" y="24" font-family="monospace" font-size="17" font-weight="700" fill="#1aa34a" text-anchor="middle">A</text><text x="428.2" y="24" font-family="monospace" font-size="17" font-weight="700" fill="#1aa34a" text-anchor="middle">A</text><text x="448.9" y="24" font-family="monospace" font-size="17" font-weight="700" fill="#222222" text-anchor="middle">G</text><text x="469.6" y="24" font-family="monospace" font-size="17" font-weight="700" fill="#1aa34a" text-anchor="middle">A</text><text x="490.4" y="24" font-family="monospace" font-size="17" font-weight="700" fill="#222222" text-anchor="middle">G</text><text x="511.1" y="24" font-family="monospace" font-size="17" font-weight="700" fill="#222222" text-anchor="middle">G</text><text x="531.8" y="24" font-family="monospace" font-size="17" font-weight="700" fill="#e23b2e" text-anchor="middle">T</text><text x="552.5" y="24" font-family="monospace" font-size="17" font-weight="700" fill="#222222" text-anchor="middle">G</text><text x="573.2" y="24" font-family="monospace" font-size="17" font-weight="700" fill="#1aa34a" text-anchor="middle">A</text><text x="593.9" y="24" font-family="monospace" font-size="17" font-weight="700" fill="#1aa34a" text-anchor="middle">A</text><text x="614.6" y="24" font-family="monospace" font-size="17" font-weight="700" fill="#e23b2e" text-anchor="middle">T</text><text x="635.3" y="24" font-family="monospace" font-size="17" font-weight="700" fill="#222222" text-anchor="middle">G</text><text x="656.0" y="24" font-family="monospace" font-size="17" font-weight="700" fill="#1aa34a" text-anchor="middle">A</text><text x="676.8" y="24" font-family="monospace" font-size="17" font-weight="700" fill="#2a6fdb" text-anchor="middle">C</text><text x="697.5" y="24" font-family="monospace" font-size="17" font-weight="700" fill="#e23b2e" text-anchor="middle">T</text><text x="718.2" y="24" font-family="monospace" font-size="17" font-weight="700" fill="#222222" text-anchor="middle">G</text><text x="738.9" y="24" font-family="monospace" font-size="17" font-weight="700" fill="#222222" text-anchor="middle">G</text><text x="759.6" y="24" font-family="monospace" font-size="17" font-weight="700" fill="#222222" text-anchor="middle">G</text><text x="780.3" y="24" font-family="monospace" font-size="17" font-weight="700" fill="#2a6fdb" text-anchor="middle">C</text><text x="801.0" y="24" font-family="monospace" font-size="17" font-weight="700" fill="#1aa34a" text-anchor="middle">A</text><text x="821.7" y="24" font-family="monospace" font-size="17" font-weight="700" fill="#2a6fdb" text-anchor="middle">C</text><text x="842.4" y="24" font-family="monospace" font-size="17" font-weight="700" fill="#222222" text-anchor="middle">G</text><text x="863.2" y="24" font-family="monospace" font-size="17" font-weight="700" fill="#222222" text-anchor="middle">G</text><text x="883.9" y="24" font-family="monospace" font-size="17" font-weight="700" fill="#e23b2e" text-anchor="middle">T</text><text x="904.6" y="24" font-family="monospace" font-size="17" font-weight="700" fill="#2a6fdb" text-anchor="middle">C</text><text x="925.3" y="24" font-family="monospace" font-size="17" font-weight="700" fill="#1aa34a" text-anchor="middle">A</text><text x="946.0" y="24" font-family="monospace" font-size="17" font-weight="700" fill="#1aa34a" text-anchor="middle">A</text>
<text x="490.4" y="14" font-family="sans-serif" font-size="13" font-weight="700" fill="#4318c9" text-anchor="middle">rs1815739</text>
<text x="483.4" y="230" font-family="monospace" font-size="15" font-weight="700" fill="#333" text-anchor="middle">G</text><text x="497.4" y="230" font-family="monospace" font-size="15" font-weight="700" fill="#333" text-anchor="middle">G</text>
</svg>